PathFileType	4	(X/Y/Z)	Run_200 01
DataRate	CameraRate	NumFrames	NumMarkers	Units	OrigDataRate	OrigDataStartFrame	OrigNumFrames
120	120	4	42	mm	120	106	128
Frame#	Time	LASI			RASI			LPSI			RPSI			RTH1			RTH2			RTH3			LTH1			LTH2			LTH3			RTB1			RTB2			RTB3			LTB1			LTB2			LTB3			RCAL			RTOE			RMT5			LCAL			LTOE			LMT5			LACR			RACR			CLAV			C7			RUA1			RUA2			RUA3			RLEL			LUA1			LUA2			LUA3			LLEL			RFAsuperior			RFAradius			RFAulna			LFAsuperior			LFAradius			LFAulna			LMEL			RMEL			
		X1	Y1	Z1	X2	Y2	Z2	X3	Y3	Z3	X4	Y4	Z4	X5	Y5	Z5	X6	Y6	Z6	X7	Y7	Z7	X8	Y8	Z8	X9	Y9	Z9	X10	Y10	Z10	X11	Y11	Z11	X12	Y12	Z12	X13	Y13	Z13	X14	Y14	Z14	X15	Y15	Z15	X16	Y16	Z16	X17	Y17	Z17	X18	Y18	Z18	X19	Y19	Z19	X20	Y20	Z20	X21	Y21	Z21	X22	Y22	Z22	X23	Y23	Z23	X24	Y24	Z24	X25	Y25	Z25	X26	Y26	Z26	X27	Y27	Z27	X28	Y28	Z28	X29	Y29	Z29	X30	Y30	Z30	X31	Y31	Z31	X32	Y32	Z32	X33	Y33	Z33	X34	Y34	Z34	X35	Y35	Z35	X36	Y36	Z36	X37	Y37	Z37	X38	Y38	Z38	X39	Y39	Z39	X40	Y40	Z40	X41	Y41	Z41	X42	Y42	Z42	

103	1.016667	1065.671767	973.4249160000001	-445.746013	1048.548258	978.461824	-211.34494	894.578505	1005.92265	-394.127097	884.321506	1007.423749	-292.837208	1010.750006	815.508554	-167.246064	1116.264828	692.155592	-202.811338	1078.714932	589.710521	-228.96818	1021.245918	796.325778	-508.191255	1101.653158	704.24847	-489.079884	1043.211049	575.3325180000001	-478.02486	1130.241373	367.802224	-312.666244	1065.311217	321.615874	-255.732656	1052.679843	203.570635	-329.042238	986.316128	380.162862	-428.004528	880.490242	382.897713	-474.126917	800.786875	322.493182	-412.547142	889.384833	87.149781	-353.648073	1102.446874	75.126913	-376.779737	1087.836959	47.6151	-268.930731	644.784049	385.970849	-405.451928	700.993304	190.181015	-363.609504	664.995581	181.759128	-466.269987	1044.757167	1457.723689	-501.631167	1024.924103	1427.278175	-135.009809	1104.555099	1395.698491	-291.521131	997.654734	1486.311971	-325.779166	982.779684	1347.487572	-93.78419700000001	966.970273	1260.985543	-111.372361	882.768007	1278.17933	-104.75001	828.463515	1181.829777	-90.008027	1007.573022	1388.562587	-557.433586	935.599773	1349.18769	-539.82314	980.8110359999999	1288.009977	-582.324194	892.89822	1210.622255	-621.1705470000001	884.424485	1109.194488	-68.174916	951.683295	935.517798	-84.726427	885.663624	921.1843	-102.125004	968.403158	1176.517279	-606.182473	1106.974032	1109.264904	-485.509848	1079.85463	1051.450699	-510.600721	852.587755	1213.283911	-558.148503	821.023505	1183.775855	-155.12958	
104	1.025	1063.928056	968.066634	-444.852801	1046.122459	973.597976	-210.551428	892.651933	1001.457652	-394.443078	881.536887	1003.176652	-293.998041	1006.546354	810.924436	-167.722005	1112.686917	687.579621	-203.162825	1074.459044	585.167436	-229.174105	1022.303927	792.505307	-508.278251	1107.583662	702.421426	-490.445061	1053.385793	572.25337	-480.742026	1121.904266	362.743779	-313.375448	1055.47311	318.486522	-256.358746	1039.166078	200.874224	-329.670441	998.898548	379.861789	-431.352676	892.732125	383.043754	-476.441143	813.0528839999999	322.651455	-414.867922	872.699239	87.142062	-354.258937	1085.811953	74.912702	-377.263862	1071.067126	47.4725	-269.293683	656.381809	386.371485	-405.046183	714.151041	189.694358	-369.806346	678.684971	184.691576	-472.909899	1041.29518	1452.942733	-501.240879	1025.823827	1420.999896	-133.968942	1104.411324	1390.489789	-292.236016	996.736286	1481.179301	-324.87856	986.590616	1338.293983	-93.67510799999999	972.182316	1251.778065	-111.563626	887.935204	1267.118253	-101.141607	836.212613	1169.121361	-86.23698	1002.742973	1384.268938	-556.245929	931.244465	1343.588048	-536.23615	975.36473	1283.667156	-580.702227	886.67804	1206.39593	-618.099351	895.083104	1097.60517	-66.85457	964.273014	926.117845	-85.390226	897.363138	910.441857	-100.956785	961.317547	1169.087268	-604.983842	1100.160914	1092.889112	-490.183966	1069.698681	1036.978812	-515.989886	847.812761	1208.696632	-554.106683	827.309855	1170.571584	-151.458874	
105	1.033333	1062.054921	963.5891810000001	-444.13655	1043.679154	969.901935	-209.278343	890.768494	997.882337	-395.037329	878.867739	999.773538	-295.805447	1002.395419	806.785847	-167.900189	1108.345646	683.2326839999999	-202.976314	1069.423106	580.9328850000001	-228.782125	1023.360388	789.484696	-508.445975	1113.535588	701.999176	-491.523536	1063.7025	570.73882	-483.378399	1112.626401	358.136809	-313.294662	1045.10148	315.827649	-256.018951	1025.349227	198.663469	-329.320981	1011.915859	380.101777	-434.880328	905.328161	383.686742	-478.633248	826.02684	322.523755	-417.086356	856.0927	87.319647	-354.309736	1069.157012	74.803877	-377.376301	1054.371713	47.176535	-269.353387	668.4237879999999	385.589694	-404.695566	728.504265	188.520137	-375.904004	693.6354250000001	186.740609	-479.319017	1038.079071	1448.899027	-500.740309	1026.828623	1415.617136	-133.059788	1104.178268	1386.141669	-292.907741	995.8136469999999	1476.888842	-324.068408	990.276728	1330.57505	-93.695032	977.763449	1243.726376	-112.083952	893.504185	1257.484465	-97.94727399999999	844.578425	1157.566836	-82.48975900000001	998.191023	1380.704357	-554.909748	927.291172	1338.839783	-532.211537	969.906096	1280.331076	-579.153513	880.515348	1202.872077	-614.87071	906.535931	1087.486511	-65.88851099999999	977.846799	918.339522	-86.42214800000001	910.512534	900.944631	-100.125964	954.43778	1162.712343	-603.013736	1092.954187	1077.240606	-494.908777	1058.897534	1023.711645	-521.268388	843.40317	1204.65029	-549.9922780000001	834.110742	1158.607952	-147.804191	
106	1.041667	1060.163179	960.148968	-443.945001	1041.391022	967.176516	-207.762887	888.989335	995.24144	-395.670185	876.763319	997.190129	-297.50966	998.330883	803.461127	-167.699763	1103.194198	679.131043	-202.274657	1063.438565	577.058992	-227.852338	1024.386994	787.099613	-508.74905	1119.242391	702.926679	-492.423345	1073.871199	570.6563169999999	-485.568485	1102.321103	353.925297	-312.679543	1034.113989	313.265836	-255.187622	1011.132035	196.786011	-328.674383	1025.28284	380.637356	-438.257999	918.285934	384.713617	-480.640055	839.640295	322.158667	-419.184937	839.495628	87.613254	-354.190246	1052.463342	74.71615	-377.251539	1037.644186	46.821225	-269.262648	680.84902	383.627557	-404.514505	743.8901	186.634075	-381.697668	709.802359	187.826636	-485.364083	1035.193449	1445.66895	-500.282634	1027.957534	1411.388882	-132.330786	1103.839356	1382.729138	-293.514842	994.915075	1473.5672	-323.344575	993.58911	1324.650144	-93.694035	983.42695	1237.251031	-112.753864	899.053377	1249.555094	-95.443217	853.246906	1147.623049	-79.022462	994.0054	1377.780941	-553.61887	923.8162579999999	1335.023097	-528.057412	964.466538	1277.85833	-577.636088	874.3642610000001	1200.252844	-611.706908	918.176608	1079.353474	-65.221459	992.279705	912.716055	-87.744775	924.982	893.254372	-99.57687199999999	947.7526360000001	1157.698465	-600.818418	1085.169171	1062.700449	-499.481316	1047.459139	1011.992331	-526.5482009999999	839.175351	1201.357003	-546.045785	840.976318	1148.524398	-144.240577	
